<svg width="159" height="72" viewBox="0 0 159 72" fill="none" xmlns="http://www.w3.org/2000/svg">
<path d="M142.511 49.9097L142.53 49.9327L146.593 54.7756C146.594 54.7772 146.595 54.7787 146.597 54.7803C147.951 56.3145 148.657 57.4453 149.01 58.5169C149.349 59.5444 149.349 60.4811 149.348 61.5537C149.348 61.5981 149.348 61.6427 149.348 61.6877C149.348 64.7109 147.859 67.1247 145.91 68.7695C143.973 70.4049 141.54 71.3185 139.556 71.3192C139.555 71.3192 139.554 71.3192 139.554 71.3192L113.85 71.4931L113.846 71.4931C112.092 71.4931 111.048 71.4451 110.114 71.0422C109.221 70.6564 108.462 69.9561 107.247 68.836L107.138 68.735L107.137 68.7349C105.812 67.5117 103.893 65.4142 102.317 63.6371C101.554 62.7777 100.868 61.9886 100.362 61.4016V70.9931V71.4931H99.8621H88.1143H87.6143V70.9931V38.1672V37.6672H88.1143H111.238C113.472 37.6672 115.916 38.8804 117.787 40.741C119.665 42.6078 121.032 45.1897 121.032 48.0098C121.032 50.7594 120.222 53.4785 118.943 55.5222C117.947 57.1128 116.621 58.3611 115.117 58.8232C115.142 58.8378 115.168 58.8524 115.195 58.8671C115.855 59.2305 116.815 59.5932 118.017 59.5932C119.323 59.5932 122.489 59.5958 125.328 59.5984L129.07 59.602L130.244 59.6031L130.567 59.6035L130.652 59.6036L130.674 59.6036L130.679 59.6036H130.681L142.511 49.9097ZM142.511 49.9097L142.489 49.8893M142.511 49.9097L142.489 49.8893M142.489 49.8893C141.919 49.3542 141.699 49.0062 141.642 48.8112C141.629 48.7685 141.627 48.741 141.627 48.7259C141.627 48.7184 141.627 48.7132 141.628 48.7097C141.629 48.7067 141.629 48.705 141.63 48.7042C141.63 48.7036 141.638 48.6788 141.698 48.6378C141.838 48.5425 142.115 48.456 142.539 48.4021C142.89 48.3574 143.292 48.3406 143.707 48.3368H143.904H158H158.5V47.8368V37.9855V37.4855H158H136.013C132.993 37.4855 130.83 39.016 129.458 40.8981C128.099 42.7617 127.484 45.0106 127.57 46.5614C127.649 48.0055 127.823 49.6767 128.591 51.541C129.361 53.4062 130.713 55.4347 133.109 57.6271L133.447 57.2582M142.489 49.8893L133.447 57.2582M133.447 57.2582L133.109 57.6271M133.447 57.2582L133.109 57.6271M133.109 57.6271C133.63 58.1033 133.968 58.4855 134.171 58.7864M133.109 57.6271L134.171 58.7864M134.171 58.7864C134.379 59.0943 134.415 59.271 134.414 59.3482M134.171 58.7864L134.414 59.3482M134.414 59.3482C134.413 59.3907 134.405 59.4244 134.332 59.4767M134.414 59.3482L134.332 59.4767M134.332 59.4767C134.24 59.5435 134.074 59.6112 133.818 59.6605M134.332 59.4767L133.818 59.6605M133.818 59.6605C133.311 59.7583 132.637 59.7507 132.019 59.7115M133.818 59.6605L132.019 59.7115M132.019 59.7115C131.715 59.6922 131.435 59.6661 131.207 59.6444M132.019 59.7115L131.207 59.6444M131.207 59.6444L131.147 59.6387M131.207 59.6444L131.147 59.6387M131.147 59.6387C130.959 59.6207 130.782 59.6036 130.681 59.6036L131.147 59.6387ZM2 22.3819H1.5V22.8819V33.8259V34.3259H2H33.8184C37.7716 34.3259 42.7419 30.6822 42.7419 24.6935C42.7419 24.2511 42.7757 23.8436 42.8103 23.4262C42.8185 23.3277 42.8267 23.2286 42.8346 23.1284C42.8748 22.6132 42.9035 22.078 42.8396 21.5095C42.7088 20.3462 42.2004 19.1248 40.8169 17.557L36.7511 12.7101L36.7319 12.6873L36.7102 12.6669C36.1329 12.1251 35.9736 11.8133 35.9512 11.6819C35.9491 11.6699 35.9488 11.662 35.9488 11.6576C35.9576 11.6471 35.9912 11.6136 36.0834 11.572C36.3001 11.4741 36.6609 11.4093 37.1368 11.3756C37.5997 11.3429 38.1119 11.3427 38.6054 11.3427H51.5395V33.8259V34.3259H52.0395H62.6935H63.1935V33.8259V11.3427H77.0527H77.5527V10.8427V1V0.5H77.0527H30.5552C27.5472 0.5 25.3066 1.95857 23.8512 3.77563C22.4102 5.57466 21.7023 7.76999 21.7881 9.33782L21.7881 9.33797C21.8675 10.7821 22.041 12.4537 22.8098 14.3184C23.5789 16.1841 24.9311 18.213 27.3276 20.4054L27.3276 20.4055C27.8483 20.8816 28.1861 21.2638 28.3896 21.5647C28.5977 21.8727 28.6339 22.0493 28.6325 22.1266C28.6317 22.169 28.6233 22.2027 28.5509 22.255C28.4585 22.3218 28.2922 22.3896 28.0365 22.4389C27.5292 22.5366 26.8553 22.529 26.2367 22.4898C25.9329 22.4705 25.6531 22.4445 25.4251 22.4228C25.4049 22.4208 25.3848 22.4189 25.3648 22.417C25.1768 22.399 24.9987 22.3819 24.898 22.3819H2ZM101.093 0.865948L100.991 0.5H100.611H83.4236H83.0493L82.9439 0.859184L73.3088 33.686L73.1208 34.3268H73.7886H84.5114H84.8568L84.979 34.0037L86.5963 29.7303H97.214L98.7734 33.9984L98.8934 34.3268H99.243H109.747H110.405L110.228 33.6927L101.093 0.865948ZM126.068 33.8268V24.2355C126.574 24.8223 127.259 25.6112 128.021 26.4704C129.597 28.2472 131.516 30.3446 132.842 31.5678L133.181 31.2002L132.842 31.5678L132.953 31.6703C134.167 32.7895 134.926 33.4896 135.819 33.8754C136.753 34.2786 137.798 34.3268 139.553 34.3268H157.997H158.497V33.8268V22.8828H158.293C158.245 22.5773 158.012 22.383 158.008 22.3829L158.002 22.3828L157.997 22.3828L157.991 22.3827L157.968 22.3827L157.882 22.3826L157.552 22.3825L156.343 22.3823L152.393 22.382L143.687 22.3819C141.767 22.3819 140.852 22.0411 140.43 21.7575C142.095 21.406 143.566 20.082 144.647 18.3547C145.926 16.3109 146.736 13.5918 146.736 10.8427C146.736 8.02213 145.37 5.4403 143.492 3.57348C141.62 1.71297 139.177 0.5 136.941 0.5H113.818H113.318V1V33.8268V34.3268H113.818H125.568H126.068V33.8268ZM2 37.4846H1.33235L1.5202 38.1253L11.1475 70.9599L11.2529 71.3192H11.6273H21.4171H21.7877L21.8955 70.9646L26.1144 57.0898L29.8549 70.9495L29.9547 71.3192H30.3376H39.9099H40.2849L40.3899 70.9591L49.963 38.1246L50.1496 37.4846H49.483H39.0405H38.6679L38.5614 37.8417L35.7765 47.1805L32.9923 37.8418L32.8858 37.4846H32.5131H19.8943H19.507L19.4102 37.8595L17.0482 47.0009L14.5021 37.8506L14.4002 37.4846H14.0204H2ZM74.634 38.04L74.5322 37.6741H74.1523H56.9649H56.5905L56.4851 38.0333L46.8509 70.8592L46.6629 71.5H47.3307H58.0527H58.398L58.5202 71.1771L60.1384 66.9044H70.757L72.3163 71.1716L72.4363 71.5H72.786H83.2904H83.9486L83.772 70.8659L74.634 38.04ZM89.3215 20.8498L92.3288 11.0603L95.1599 20.8498H89.3215ZM133.026 14.7211H126.069V9.81051H133.026C134.38 9.81051 135.247 10.9794 135.313 12.2908C135.345 12.9314 135.174 13.5406 134.813 13.9803C134.462 14.4072 133.895 14.7211 133.026 14.7211ZM65.8708 48.2337L68.7012 58.023H62.8637L65.8708 48.2337ZM107.32 51.8874H100.361V46.9768H107.32C108.674 46.9768 109.541 48.1458 109.607 49.4571C109.639 50.0977 109.468 50.7069 109.106 51.1465C108.756 51.5735 108.188 51.8874 107.32 51.8874Z" stroke="#F9F017"/>
</svg>
